<svg width="177" height="32" viewBox="0 0 177 32" fill="none" xmlns="http://www.w3.org/2000/svg">
<path d="M25.7676 13.8735C25.7676 14.8383 24.9859 15.62 24.0211 15.62H5.23944C4.33099 15.62 3.58451 14.9228 3.5 14.0355C3.49296 13.9791 3.49296 13.9298 3.49296 13.8735V4.47914C3.49296 3.51436 2.71127 2.73267 1.74648 2.73267C0.78169 2.73267 0 3.51436 0 4.47914V30.3101V30.2397C0 31.2045 0.78169 31.9862 1.74648 31.9862C2.71127 31.9862 3.49296 31.2045 3.49296 30.2397V20.8524C3.49296 19.8876 4.27465 19.1059 5.23944 19.1059H24.0211C24.9859 19.1059 25.7676 19.8876 25.7676 20.8524V30.3101V30.2397C25.7676 31.2045 26.5493 31.9862 27.5141 31.9862C28.4789 31.9862 29.2606 31.2045 29.2606 30.2397V4.52844C29.2606 3.56365 28.4789 2.78196 27.5141 2.78196C26.5493 2.78196 25.7676 3.56365 25.7676 4.52844V13.8735" fill="#262626"/>
<path d="M62.7254 29.3806L49.8521 3.63407C49.5564 3.09886 48.9789 2.73267 48.324 2.73267C47.669 2.73267 47.0916 3.09886 46.7958 3.63407L33.8944 29.4439C33.7676 29.6834 33.6972 29.958 33.6972 30.2468C33.6972 31.2115 34.4789 31.9932 35.4437 31.9932C36.1197 31.9932 36.7042 31.6129 36.993 31.0496L40.7254 23.5848L40.7606 23.5144C41.0564 22.9721 41.6338 22.5989 42.2958 22.5989H54.3451C55.0071 22.5989 55.5845 22.9651 55.8803 23.5144L59.6972 31.1129C60 31.6411 60.5634 31.9932 61.2113 31.9932C62.1761 31.9932 62.9578 31.2115 62.9578 30.2468C62.9578 29.9299 62.8733 29.6341 62.7254 29.3806ZM50.8592 19.1059H45.7817C44.8169 19.1059 44.0352 18.3242 44.0352 17.3594C44.0352 17.0989 44.0916 16.8524 44.1972 16.627L46.7535 11.5214L46.7676 11.4932C47.0564 10.9228 47.6479 10.5355 48.324 10.5355C49.0071 10.5355 49.5916 10.9228 49.8803 11.4932L49.8944 11.5144L52.4437 16.627C52.5493 16.8524 52.6057 17.0989 52.6057 17.3594C52.5986 18.3242 51.824 19.1059 50.8592 19.1059Z" fill="#262626"/>
<path d="M91.2817 16.1129C92.4436 14.6975 93.1408 12.8946 93.1408 10.9228C93.1408 6.40168 89.4718 2.73267 84.9507 2.73267H69.1408C68.176 2.73267 67.3943 3.51436 67.3943 4.47914V30.2468C67.3943 31.2115 68.176 31.9932 69.1408 31.9932H88.4507H88.4648C92.9859 31.9932 96.6549 28.3242 96.6549 23.8031C96.6549 20.2749 94.4155 17.2608 91.2817 16.1129ZM70.8803 7.9721C70.8803 7.00731 71.662 6.22562 72.6267 6.22562H84.9296C87.5211 6.22562 89.6267 8.33126 89.6267 10.9228C89.6267 13.5144 87.5211 15.62 84.9296 15.62H72.6267C71.662 15.62 70.8803 14.8383 70.8803 13.8735V7.9721ZM88.4577 28.5003H72.6267C71.662 28.5003 70.8803 27.7186 70.8803 26.7538V20.8524C70.8803 19.8876 71.662 19.1059 72.6267 19.1059H88.4577C91.0493 19.1059 93.1549 21.2115 93.1549 23.8031C93.1479 26.4017 91.0493 28.5003 88.4577 28.5003Z" fill="#262626"/>
<path d="M124.007 16.1129C125.169 14.6975 125.866 12.8946 125.866 10.9228C125.866 6.40168 122.197 2.73267 117.676 2.73267H101.866C100.901 2.73267 100.12 3.51436 100.12 4.47914V30.2468C100.12 31.2115 100.901 31.9932 101.866 31.9932H121.176H121.19C125.711 31.9932 129.38 28.3242 129.38 23.8031C129.38 20.2749 127.141 17.2608 124.007 16.1129ZM103.606 7.9721C103.606 7.00731 104.387 6.22562 105.352 6.22562H117.662H117.676C120.268 6.22562 122.373 8.33126 122.373 10.9228C122.373 13.5144 120.247 15.62 117.655 15.62H105.352C104.387 15.62 103.606 14.8383 103.606 13.8735V7.9721ZM121.183 28.5003H105.352C104.387 28.5003 103.606 27.7186 103.606 26.7538V20.8524C103.606 19.8876 104.387 19.1059 105.352 19.1059H121.183C123.775 19.1059 125.88 21.2115 125.88 23.8031C125.873 26.4017 123.775 28.5003 121.183 28.5003Z" fill="#262626"/>
<path d="M138.084 2.73267C137.12 2.73267 136.338 3.51436 136.338 4.47914V30.2468C136.338 31.2115 137.12 31.9932 138.084 31.9932C139.049 31.9932 139.831 31.2115 139.831 30.2468V4.47914C139.831 3.51436 139.049 2.73267 138.084 2.73267Z" fill="#262626"/>
<path d="M169.479 5.61992C168.859 4.83823 168.979 3.74669 169.704 3.15514L173.232 0.373446C173.965 -0.211061 175.063 -0.0983847 175.648 0.63401C176.239 1.3664 176.183 2.49316 175.415 3.09176C175.415 3.09176 172.246 5.59176 171.88 5.88753C171.127 6.43683 170.07 6.33119 169.479 5.61992Z" fill="#262626"/>
<path d="M172.563 4.49318C172.563 3.52839 171.782 2.7467 170.817 2.7467H148.556C147.592 2.7467 146.81 3.52839 146.81 4.49318C146.81 5.45797 147.592 6.23966 148.556 6.23966H170.817C171.789 6.23966 172.563 5.45797 172.563 4.49318Z" fill="#262626"/>
<path d="M148.556 9.72559C147.592 9.72559 146.81 10.5073 146.81 11.4721V30.2467C146.81 31.2115 147.592 31.9932 148.556 31.9932H174.31C175.275 31.9932 176.056 31.2115 176.056 30.2467C176.056 29.2819 175.275 28.5002 174.31 28.5002H152.049C151.085 28.5002 150.303 27.7185 150.303 26.7537V24.5354V24.3523C150.303 23.3876 151.085 22.6059 152.049 22.6059H153.479H174.31C175.275 22.6059 176.056 21.8242 176.056 20.8594C176.056 19.8946 175.275 19.1129 174.31 19.1129H152.5H152.049C151.085 19.1129 150.303 18.3312 150.303 17.3664V16.8876V14.965C150.303 14.0002 151.085 13.2185 152.049 13.2185H174.31C175.275 13.2185 176.056 12.4369 176.056 11.4721C176.056 10.5073 175.275 9.72559 174.31 9.72559H148.556C147.592 9.72559 146.81 10.5073 146.81 11.4721Z" fill="#262626"/>
</svg>
